<svg xmlns="http://www.w3.org/2000/svg" width="128" height="128"><path d="M0 0h128v128H0V0z" fill="#4A96FF"/><path d="M78 9c3.961.319 6.532 1.754 9.75 4l2.36 1.625C92 16 92 16 93 17c.1 2.29.13 4.583.125 6.875l.008 3.805C93 31 93 31 92 34l3.21-.07c1.389-.02 2.777-.037 4.165-.055l2.117-.05c1.837-.018 3.674.072 5.508.175 2 2 2 2 2.375 4.438C109 41 109 41 107.293 42.53c-2.399 1.537-4.69 2.538-7.356 3.532C96.933 47.187 94.695 48.203 92 50c-.415 2.127-.415 2.127-.293 4.57l.03 2.715c.024.937.05 1.874.076 2.84l.04 2.863c.036 2.338.085 4.675.147 7.012l1.893.623c2.876.96 5.741 1.95 8.607 2.94l2.977.978C113.813 77.459 119.992 81.625 125 89c.375 2.737.139 5.22 0 8-2.031.777-2.031.777-5 1a69.137 69.137 0 0 1-7.5-4.438l-4.25-2.769-2.145-1.417c-3.161-2.066-6.38-4.035-9.605-6.001l-3.219-1.977L91 80l.488 1.887c.71 4.318.696 8.557.7 12.925l.037 2.62c.017 7.57-.823 14.165-5.225 20.568-3.023-1.365-5.229-2.93-7.645-5.195l-2.052-1.922-2.115-2.008-2.08-1.938c-4.16-3.918-7.884-7.936-11.376-12.464C59.418 92.505 57.96 92.857 55 93c-2.375-1.625-2.375-1.625-4-4 .25-3.25.25-3.25 1-6l1.688.75c2.528.525 2.528.525 5-1.563C61.032 80.219 61.032 80.219 62 78l-4-2 1.863-.996c4.615-2.716 7.514-4.65 9.2-9.879.345-1.367.67-2.74.937-4.125-3.952-.687-5.975-.629-9.445 1.5-2.653 2.077-5.128 4.16-7.555 6.5l-1.856 1.363c-3.71 3.208-5.28 6.08-5.702 10.936-.218 5.239-.053 10.463.12 15.701.036 1.842.068 3.685.096 5.527.077 4.493.198 8.982.342 13.473h-3c-1.352-1.645-1.352-1.645-2.625-3.813-.425-.707-.85-1.415-1.29-2.144-2.15-4.047-2.357-7.71-2.648-12.23l-.253-3.856L36 91l-1.938 2.938C32 97 32 97 31 98c-2 .04-4 .043-6 0-3.78-10.482-3.78-10.482-4-16 1.446-2.25 2.869-2.934 5.25-4.125C31.287 74.441 35.764 68.716 38 63c.168-2.667.168-2.667 0-5l-2.738 2.117-3.575 2.758-1.802 1.395C22.45 70 22.45 70 19.242 69.992c-4.381-1.34-6.867-3.727-10.117-6.867L7.328 61.48C5.817 60.056 4.4 58.533 3 57v-3l1.982.01c8.379-.314 14.013-3.2 21.08-7.51l3.124-1.84a638.607 638.607 0 0 0 5.65-3.369C37 40 37 40 39 39a86.183 86.183 0 0 0 1.188-7.5c.13-1.086.13-1.086.265-2.193.578-5.29.486-10.049-.453-15.307 4.516 0 4.929.396 8.063 3.313l2.035 1.863L52 21l1.727 1.586C55 24 55 24 55.313 26.313 54.953 29.407 54.084 32.085 53 35l3 1c2.29 3.435 2.178 4.985 2 9l-3.438 1.313c-2.011.99-2.011.99-3.562 2.687-.93 3.67-1.046 7.224-1 11l1.809-1.18c6.712-4.328 13.539-8.421 20.439-12.443l2.127-1.24 1.898-1.103C77.88 43.072 79.443 42.038 81 41c.416-2.421.416-2.421.293-5.227l-.03-3.125c-.024-1.08-.05-2.16-.076-3.273l-.04-3.297A830.157 830.157 0 0 0 81 18l-5-2c-.125-2.375-.125-2.375 0-5l2-2z" fill="#FAFCFF"/><path d="M73 75c1.875-.328 1.875-.328 4-.25.701.015 1.402.03 2.125.047C81 75 81 75 83 76c.029 3.458.047 6.917.063 10.375l.025 2.984.01 2.852.016 2.634C83 97 83 97 82 99c-8.385.762-13.192-2.462-20-7 .586-3.889 2.453-6.083 4.938-9.063C69.097 80.332 71.12 77.819 73 75z" fill="#4F99FF"/><path d="M81 61h1v6h-4c1.875-4.875 1.875-4.875 3-6z" fill="#4C97FF"/></svg>